# This file uses centimeters as units for non-parametric coordinates.

mtllib Island Base.mtl
g default
v 254.323267 -33.041398 -104.669897
v 133.460861 -33.041398 -104.669922
v 73.029639 -33.041398 -0.000015
v 133.460828 -33.041398 104.669911
v 254.323234 -33.041398 104.669919
v 314.754444 -33.041398 0.000005
v 234.179528 -19.731229 -69.779939
v 153.604579 -19.731229 -69.779947
v 113.317101 -19.731229 -0.000010
v 153.604563 -19.731229 69.779944
v 234.179507 -19.731229 69.779944
v 274.466982 -19.731229 0.000003
v 214.395495 -3.885101 -35.513003
v 173.388604 -3.885084 -35.513008
v 152.885151 -3.885084 -0.000004
v 173.388592 -3.885084 35.513009
v 214.395485 -3.885084 35.513009
v 234.898932 -3.885084 0.000003
v 193.892042 3.441945 0.000003
v 163.676449 -11.446196 -52.334964
v 193.892049 -4.056777 -41.535679
v 224.107654 -11.446196 -52.334951
v 133.460844 -11.446196 -0.000006
v 157.921089 -4.056777 -20.767844
v 163.676432 -11.446196 52.334957
v 157.921085 -4.056777 20.767840
v 224.107638 -11.446196 52.334961
v 193.892036 -4.056777 41.535681
v 254.323243 -11.446196 0.000003
v 229.862993 -4.056777 20.767844
v 229.863001 -4.056777 -20.767838
v 182.381339 0.924148 -19.937127
v 205.402752 0.924148 -19.937125
v 170.870631 0.924148 -0.000001
v 182.381332 0.924148 19.937128
v 205.402746 0.924148 19.937130
v 216.913454 0.924148 0.000003
v 193.892068 -33.041398 -119.622759
v 143.532726 -26.712303 -87.224934
v 193.892058 -19.731229 -79.748508
v 244.251394 -26.712303 -87.224926
v 90.295704 -33.041398 -59.811394
v 93.173378 -26.712303 -0.000012
v 124.827815 -19.731229 -39.874261
v 90.295688 -33.041398 59.811367
v 143.532701 -26.712303 87.224932
v 124.827811 -19.731229 39.874246
v 193.892031 -33.041398 119.622764
v 244.251369 -26.712303 87.224932
v 193.892034 -19.731229 79.748513
v 297.488386 -33.041398 59.811384
v 294.610705 -26.712303 0.000005
v 262.956271 -19.731229 39.874258
v 297.488403 -33.041398 -59.811370
v 262.956280 -19.731229 -39.874248
v 193.892063 -26.712303 -99.685637
v 107.561762 -26.712303 -49.842830
v 107.561745 -26.712303 49.842806
v 193.892032 -26.712303 99.685643
v 280.222329 -26.712303 49.842823
v 280.222345 -26.712303 -49.842809
v 193.892054 -11.446196 -59.811378
v 142.093873 -11.446196 -29.905698
v 142.093860 -11.446196 29.905685
v 193.892035 -11.446196 59.811384
v 245.690214 -11.446196 29.905693
v 245.690226 -11.446196 -29.905685
v 193.892046 0.237491 -26.582834
v 170.870633 0.237491 -13.291420
v 170.870628 0.237491 13.291418
v 193.892038 0.237491 26.582840
v 216.913452 0.237491 13.291421
v 216.913456 0.237491 -13.291414
vt 0.578125 0.979066
vt 0.421875 0.979066
vt 0.343750 0.843750
vt 0.421875 0.708434
vt 0.578125 0.708434
vt 0.656250 0.843750
vt 0.545573 0.922685
vt 0.454427 0.922685
vt 0.408854 0.843750
vt 0.454427 0.764815
vt 0.545573 0.764815
vt 0.591146 0.843750
vt 0.523193 0.883271
vt 0.476807 0.883271
vt 0.453613 0.843099
vt 0.476807 0.802927
vt 0.523193 0.802927
vt 0.546387 0.843099
vt 0.500000 0.839236
vt 0.500000 0.956514
vt 0.402344 0.900132
vt 0.402344 0.787368
vt 0.500000 0.730986
vt 0.597656 0.787368
vt 0.597656 0.900132
vt 0.500000 0.911408
vt 0.441406 0.877579
vt 0.441406 0.809921
vt 0.500000 0.776092
vt 0.558594 0.809921
vt 0.558594 0.877579
vt 0.500000 0.871737
vt 0.473958 0.856702
vt 0.473958 0.826632
vt 0.500000 0.811596
vt 0.526042 0.826632
vt 0.526042 0.856702
vt 0.500000 0.979066
vt 0.443034 0.942418
vt 0.500000 0.933961
vt 0.556966 0.942418
vt 0.382812 0.911408
vt 0.386068 0.843750
vt 0.421875 0.888855
vt 0.382812 0.776092
vt 0.443034 0.745082
vt 0.421875 0.798645
vt 0.500000 0.708434
vt 0.556966 0.745082
vt 0.500000 0.753539
vt 0.617188 0.776092
vt 0.613932 0.843750
vt 0.578125 0.798645
vt 0.617188 0.911408
vt 0.578125 0.888855
vt 0.465820 0.902951
vt 0.500000 0.890214
vt 0.534180 0.902951
vt 0.431641 0.843750
vt 0.459310 0.866722
vt 0.465820 0.784549
vt 0.459310 0.819737
vt 0.534180 0.784549
vt 0.500000 0.796244
vt 0.568359 0.843750
vt 0.540690 0.819737
vt 0.540690 0.866722
vt 0.486979 0.863699
vt 0.513021 0.863699
vt 0.473958 0.841146
vt 0.486979 0.818593
vt 0.513021 0.818593
vt 0.526042 0.841146
vn 0.149875 0.954018 -0.259591
vn 0.000000 0.953126 -0.302573
vn 0.000000 0.949675 -0.313237
vn 0.155012 0.950729 -0.268489
vn -0.149875 0.954018 -0.259591
vn -0.155012 0.950729 -0.268489
vn -0.173373 0.937959 -0.300291
vn 0.000000 0.936568 -0.350485
vn 0.173373 0.937959 -0.300291
vn -0.262035 0.953126 -0.151286
vn -0.271271 0.949675 -0.156618
vn -0.299749 0.954018 -0.000000
vn -0.310024 0.950729 -0.000000
vn -0.346746 0.937959 -0.000000
vn -0.303529 0.936568 -0.175243
vn -0.262036 0.953126 0.151286
vn -0.271271 0.949675 0.156618
vn -0.149875 0.954018 0.259591
vn -0.155012 0.950729 0.268489
vn -0.173373 0.937959 0.300291
vn -0.303529 0.936568 0.175242
vn -0.000000 0.953126 0.302573
vn -0.000000 0.949675 0.313237
vn 0.149875 0.954018 0.259591
vn 0.155012 0.950729 0.268489
vn 0.173373 0.937959 0.300291
vn -0.000000 0.936568 0.350485
vn 0.262035 0.953126 0.151286
vn 0.271271 0.949675 0.156618
vn 0.299749 0.954018 0.000000
vn 0.310024 0.950729 0.000000
vn 0.346746 0.937959 0.000000
vn 0.303529 0.936568 0.175243
vn 0.262036 0.953126 -0.151286
vn 0.271271 0.949675 -0.156618
vn 0.303529 0.936568 -0.175242
vn 0.000000 0.925414 -0.378957
vn 0.188149 0.926499 -0.325884
vn -0.188149 0.926499 -0.325884
vn -0.169513 0.940777 -0.293605
vn 0.000000 0.940222 -0.340563
vn 0.169513 0.940777 -0.293605
vn -0.328186 0.925414 -0.189478
vn -0.376298 0.926499 -0.000000
vn -0.339026 0.940777 -0.000000
vn -0.294936 0.940222 -0.170281
vn -0.328186 0.925414 0.189478
vn -0.188149 0.926499 0.325884
vn -0.169513 0.940777 0.293606
vn -0.294936 0.940222 0.170281
vn -0.000000 0.925414 0.378957
vn 0.188149 0.926499 0.325883
vn 0.169513 0.940777 0.293605
vn 0.000000 0.940222 0.340563
vn 0.328186 0.925414 0.189478
vn 0.376298 0.926499 0.000000
vn 0.339026 0.940777 0.000000
vn 0.294936 0.940222 0.170281
vn 0.328186 0.925414 -0.189478
vn 0.294936 0.940222 -0.170282
vn 0.000000 0.976866 -0.213853
vn 0.091344 0.983171 -0.158213
vn -0.091344 0.983171 -0.158213
vn -0.000000 1.000000 -0.000000
vn -0.185202 0.976866 -0.106927
vn -0.182689 0.983171 -0.000000
vn -0.185202 0.976866 0.106926
vn -0.091344 0.983171 0.158213
vn -0.000000 0.976866 0.213854
vn 0.091344 0.983171 0.158214
vn 0.185202 0.976866 0.106926
vn 0.182688 0.983171 -0.000000
vn 0.185202 0.976866 -0.106927
s 1
g pCylinder32
usemtl initialShadingGroup
f 1/1/1 38/38/2 56/20/3 41/41/4
f 38/38/2 2/2/5 39/39/6 56/20/3
f 56/20/3 39/39/6 8/8/7 40/40/8
f 41/41/4 56/20/3 40/40/8 7/7/9
f 2/2/5 42/42/10 57/21/11 39/39/6
f 42/42/10 3/3/12 43/43/13 57/21/11
f 57/21/11 43/43/13 9/9/14 44/44/15
f 39/39/6 57/21/11 44/44/15 8/8/7
f 3/3/12 45/45/16 58/22/17 43/43/13
f 45/45/16 4/4/18 46/46/19 58/22/17
f 58/22/17 46/46/19 10/10/20 47/47/21
f 43/43/13 58/22/17 47/47/21 9/9/14
f 4/4/18 48/48/22 59/23/23 46/46/19
f 48/48/22 5/5/24 49/49/25 59/23/23
f 59/23/23 49/49/25 11/11/26 50/50/27
f 46/46/19 59/23/23 50/50/27 10/10/20
f 5/5/24 51/51/28 60/24/29 49/49/25
f 51/51/28 6/6/30 52/52/31 60/24/29
f 60/24/29 52/52/31 12/12/32 53/53/33
f 49/49/25 60/24/29 53/53/33 11/11/26
f 6/6/30 54/54/34 61/25/35 52/52/31
f 54/54/34 1/1/1 41/41/4 61/25/35
f 61/25/35 41/41/4 7/7/9 55/55/36
f 52/52/31 61/25/35 55/55/36 12/12/32
f 7/7/9 40/40/8 62/26/37 22/58/38
f 40/40/8 8/8/7 20/56/39 62/26/37
f 62/26/37 20/56/39 14/14/40 21/57/41
f 22/58/38 62/26/37 21/57/41 13/13/42
f 8/8/7 44/44/15 63/27/43 20/56/39
f 44/44/15 9/9/14 23/59/44 63/27/43
f 63/27/43 23/59/44 15/15/45 24/60/46
f 20/56/39 63/27/43 24/60/46 14/14/40
f 9/9/14 47/47/21 64/28/47 23/59/44
f 47/47/21 10/10/20 25/61/48 64/28/47
f 64/28/47 25/61/48 16/16/49 26/62/50
f 23/59/44 64/28/47 26/62/50 15/15/45
f 10/10/20 50/50/27 65/29/51 25/61/48
f 50/50/27 11/11/26 27/63/52 65/29/51
f 65/29/51 27/63/52 17/17/53 28/64/54
f 25/61/48 65/29/51 28/64/54 16/16/49
f 11/11/26 53/53/33 66/30/55 27/63/52
f 53/53/33 12/12/32 29/65/56 66/30/55
f 66/30/55 29/65/56 18/18/57 30/66/58
f 27/63/52 66/30/55 30/66/58 17/17/53
f 12/12/32 55/55/36 67/31/59 29/65/56
f 55/55/36 7/7/9 22/58/38 67/31/59
f 67/31/59 22/58/38 13/13/42 31/67/60
f 29/65/56 67/31/59 31/67/60 18/18/57
f 13/13/42 21/57/41 68/32/61 33/69/62
f 14/14/40 32/68/63 68/32/61 21/57/41
f 19/19/64 33/69/62 68/32/61 32/68/63
f 14/14/40 24/60/46 69/33/65 32/68/63
f 15/15/45 34/70/66 69/33/65 24/60/46
f 19/19/64 32/68/63 69/33/65 34/70/66
f 15/15/45 26/62/50 70/34/67 34/70/66
f 16/16/49 35/71/68 70/34/67 26/62/50
f 19/19/64 34/70/66 70/34/67 35/71/68
f 16/16/49 28/64/54 71/35/69 35/71/68
f 17/17/53 36/72/70 71/35/69 28/64/54
f 19/19/64 35/71/68 71/35/69 36/72/70
f 17/17/53 30/66/58 72/36/71 36/72/70
f 18/18/57 37/73/72 72/36/71 30/66/58
f 19/19/64 36/72/70 72/36/71 37/73/72
f 18/18/57 31/67/60 73/37/73 37/73/72
f 13/13/42 33/69/62 73/37/73 31/67/60
f 19/19/64 37/73/72 73/37/73 33/69/62
